<?xml version="1.0" encoding="UTF-8"?>
<svg width="246px" height="179px" viewBox="0 0 246 179" version="1.1" xmlns="http://www.w3.org/2000/svg" xmlns:xlink="http://www.w3.org/1999/xlink">
    <!-- Generator: Sketch 51.3 (57544) - http://www.bohemiancoding.com/sketch -->
    <title>Klaster + reka</title>
    <desc>Created with Sketch.</desc>
    <defs>
        <linearGradient x1="50%" y1="94.7073699%" x2="50%" y2="24.173591%" id="linearGradient-1">
            <stop stop-color="#000000" stop-opacity="0" offset="0%"></stop>
            <stop stop-color="#033649" offset="100%"></stop>
        </linearGradient>
    </defs>
    <g id="Klaster-+-reka" stroke="none" stroke-width="1" fill="none" fill-rule="evenodd">
        <path d="M231.368578,167.289721 L232.420699,167.484495 L233.976336,167.80662 C234.344578,167.881533 235.374154,168.113763 236.358639,168.368467 C237.343124,168.623171 238.147245,168.817944 239.793063,169.342334 C241.041166,169.718589 242.259475,170.186837 243.437911,170.743206 C244.102025,170.994256 244.702454,171.388156 245.196457,171.896864 C245.374671,172.078674 245.448238,172.338163 245.391851,172.586063 C245.32135,172.712778 245.22693,172.824706 245.11379,172.915679 C244.999413,173.018846 244.866937,173.100112 244.723002,173.155401 L244.332214,173.320209 C243.382501,173.605532 242.409212,173.80609 241.423851,173.919512 C240.514517,174.046864 239.635245,174.13676 238.755972,174.219164 C231.759366,174.833449 219.599851,175.080662 212.84373,175.350348 C185.84179,176.324216 176.695851,176.676307 154.977063,177.035889 C113.861669,177.747561 102.115487,177.305575 68.9285781,177.710105 C52.755972,177.867422 39.1535478,178.084669 27.0240932,178.369338 C20.9443357,178.511672 15.4131841,178.683972 10.295366,178.96115 C7.68009324,179.088502 5.17754779,179.245819 2.87791142,179.478049 C1.73560839,179.597909 0.623365967,179.732753 -0.285967366,179.927526 C-0.673607239,179.995503 -1.04863495,180.121799 -1.39820979,180.302091 C-1.54099767,180.377003 -1.57857343,180.47439 -1.52596737,180.594251 C-1.37876233,180.742223 -1.19454117,180.848267 -0.992391608,180.901394 C-1.29044126,180.830353 -1.57308203,180.705979 -1.82657343,180.534321 C-1.97687646,180.399477 -2.02948252,180.279617 -1.98439161,180.18223 C-1.9393007,180.084843 -1.69881585,179.830139 -1.45081585,179.687805 C-0.829265174,179.392113 -0.179769596,179.158736 0.48809324,178.991115 C1.93100233,178.586585 3.49415385,178.241986 5.14748718,177.979791 C8.56688112,177.417944 12.4371841,176.975958 16.9537902,176.563937 C25.971972,175.747387 38.0788811,175.140592 53.3797296,174.511324 C75.9702751,173.664808 105.933184,172.810801 141.261911,171.956794 C153.173427,171.657143 165.663608,171.342509 178.454396,170.967944 C185.060214,170.780662 191.786275,170.59338 198.482275,170.376132 L191.387972,170.18885 C141.735366,168.952787 108.413184,168.353484 82.8541538,167.641812 C70.611972,167.229791 60.6619114,166.81777 51.711366,166.41324 C43.0388811,165.978746 35.5237296,165.544251 28.797669,164.765157 C25.2829796,164.410832 21.7906229,163.863132 18.3365781,163.124564 C17.4861251,162.972598 16.6816442,162.629281 15.9843357,162.120732 C15.9063867,162.033826 15.8612163,161.922583 15.8565781,161.806098 C15.8459471,161.712951 15.8643127,161.6188 15.9091841,161.536411 C15.9376892,161.470538 15.9729472,161.407777 16.0143963,161.349129 C16.1057523,161.236186 16.2036142,161.12863 16.3074872,161.027003 C16.5204215,160.815336 16.7575143,160.629281 17.0139114,160.472648 C17.5427917,160.110024 18.0979314,159.787013 18.6747599,159.506272 C19.7236523,158.979181 20.8026799,158.513921 21.9062751,158.112892 C23.0711235,157.670906 24.9123357,157.094077 25.5511235,156.921777 C26.4379114,156.674564 27.4524569,156.412369 28.2415478,156.225087 L29.7445781,155.89547 L30.9695478,155.655749 L31.8863963,155.498432 C33.9680932,155.153833 35.1103963,155.026481 36.237669,154.891638 L36.8764569,154.824216 L37.627972,154.741812 L38.3794872,154.67439 L39.213669,154.591986 C44.2112448,154.157491 48.4046993,153.910279 52.3426387,153.700523 L57.1373054,153.460801 C67.1474872,152.996341 75.9928205,152.711672 84.0190023,152.434495 C89.6478508,152.262195 94.8783963,152.119861 99.8008205,152 L99.8008205,156.914286 C92.8417902,157.139024 85.5821538,157.378746 78.0745175,157.663415 L73.4151235,157.828223 C68.2371841,158.015505 62.9991235,158.202787 57.6333054,158.412544 L57.0771841,158.412544 L61.2556084,158.607317 C90.0611841,159.828397 112.148214,160.442683 133.401063,161.146864 C143.493911,161.551394 153.331245,161.963415 164.25076,162.367944 C174.997427,162.832404 186.397911,163.27439 200.857063,164.038502 C208.236942,164.458014 201.172699,164.105923 212.12979,164.937456 C215.038154,165.177178 223.101911,165.53676 227.633548,166.435714" id="Path" fill="url(#linearGradient-1)"></path>
        <g id="klaster-v-logu-modry" transform="translate(42.000000, 0.000000)" fill="#033649">
            <g id="klaster-+-reka">
                <path d="M88.0060606,17.8966899 L89.1333333,21.7247387 L88.0060606,17.8966899 Z M85.7515152,9.97090592 C85.9665865,9.9112156 86.1664215,9.80650766 86.337697,9.66376307 C86.1620017,9.7998003 85.9635502,9.90378337 85.7515152,9.97090592 Z M85.4133333,6.74216028 C85.5258657,6.73281459 85.6389828,6.73281459 85.7515152,6.74216028 C85.6513758,6.71077507 85.5480241,6.69067291 85.4433939,6.68222997 L85.4133333,6.74216028 Z M85.4133333,6.15783972 L85.4509091,6.15783972 C85.4509091,6.15783972 85.4509091,6.15783972 85.4058182,6.15783972 L85.4058182,6.57735192 L85.4133333,6.15783972 Z M85.1277576,6.15783972 L85.1277576,6.56986063 L85.1277576,6.15034843 C85.1277576,6.15034843 85.1277576,6.15034843 85.0826667,6.15034843 L85.1277576,6.15783972 Z M85.1277576,6.74216028 C85.0231188,6.75054048 84.91976,6.770644 84.8196364,6.80209059 C84.9157142,6.77492472 85.0136794,6.7548931 85.1127273,6.74216028 L85.1277576,6.74216028 Z M84.8121212,10.0083624 C84.6006073,9.94352608 84.4021881,9.84209575 84.2259394,9.7087108 C84.3960262,9.8362528 84.5903429,9.92800532 84.7970909,9.97839721 L84.8121212,10.0083624 Z" id="Shape" fill-rule="nonzero"></path>
                <path d="M85.7515152,9.97090592 C85.9665865,9.9112156 86.1664215,9.80650766 86.337697,9.66376307 C86.1620017,9.7998003 85.9635502,9.90378337 85.7515152,9.97090592 Z M85.4358788,6.70470383 C85.5419092,6.70897328 85.6474426,6.7214969 85.7515152,6.74216028 C85.6407259,6.71606709 85.5271664,6.70348944 85.4133333,6.70470383 L85.4358788,6.70470383 Z M84.8271515,6.76463415 C84.928347,6.73925364 85.0313619,6.72172157 85.1352727,6.71219512 C85.0242477,6.70905246 84.9132425,6.71911179 84.8046061,6.74216028 L84.8271515,6.76463415 Z M84.2484848,9.67125436 C84.4197604,9.81399895 84.6195954,9.91870689 84.8346667,9.97839721 C84.6226317,9.91127466 84.4241801,9.80729159 84.2484848,9.67125436 Z" id="Shape" fill-rule="nonzero"></path>
                <path d="M90.8618182,143.240941 L90.8618182,157.317073 L79.6642424,157.317073 L79.6642424,143.240941 C79.8928768,141.808029 80.4285917,140.441055 81.2349091,139.233101 C81.6131578,138.598851 82.051004,138.00186 82.5425455,137.450174 C83.3507235,136.533145 84.2637585,135.71352 85.2630303,135.008014 C86.882196,136.126115 88.2533182,137.564282 89.2911515,139.233101 C90.0974689,140.441055 90.6331838,141.808029 90.8618182,143.240941 Z" id="Path"></path>
                <path d="M84.2484848,9.67125436 C84.4247336,9.8046393 84.6231528,9.90606963 84.8346667,9.97090592 C84.62022,9.9134501 84.4204324,9.81132023 84.2484848,9.67125436 Z" id="Path"></path>
                <path d="M84.8046061,6.74216028 C84.9047297,6.71071369 85.0080885,6.69061017 85.1127273,6.68222997 C85.0086171,6.69421511 84.9055995,6.71425229 84.8046061,6.74216028 Z" id="Path"></path>
                <path d="M85.4133333,6.70470383 C85.5271664,6.70348944 85.6407259,6.71606709 85.7515152,6.74216028 C85.6503074,6.71683806 85.547297,6.69930677 85.4433939,6.68972125 L85.4133333,6.70470383 Z" id="Path"></path>
                <path d="M86.3151515,9.67125436 C86.143876,9.81399895 85.944041,9.91870689 85.7289697,9.97839721 C85.9410047,9.91127466 86.1394563,9.80729159 86.3151515,9.67125436 Z" id="Path"></path>
                <path d="M109.115387,117.710627 L109.115387,91.491115 L104.440558,86.4719512 L104.440558,81.4527875 L101.988673,78.8158537 L99.773114,76.4261324 L99.773114,42.9550523 L104.167306,42.9550523 L99.9208179,40.8050523 L93.1707488,37.3815331 L90.4160707,27.71777 L90.4160707,21.7247387 L88.7174756,21.7247387 L87.6096962,17.8966899 L85.3941374,9.97839721 C85.6019937,9.91356092 85.7969817,9.81213059 85.9701827,9.67874564 C86.0512573,9.61153603 86.1254808,9.53624621 86.1917386,9.45400697 C86.2574618,9.37142435 86.3167237,9.28375922 86.3689833,9.19181185 C86.3892472,9.15586895 86.4065386,9.11828378 86.4206797,9.07944251 C86.4416282,9.04751481 86.4566455,9.01197109 86.4649908,8.97456446 C86.5067312,8.8637713 86.5340408,8.74792692 86.546228,8.62996516 C86.5538849,8.5502468 86.5538849,8.46996225 86.546228,8.3902439 C86.5499854,8.32287616 86.5499854,8.25534683 86.546228,8.18797909 C86.5394811,8.1067585 86.5246348,8.02644085 86.5019168,7.94825784 C86.4865941,7.88937705 86.4668423,7.83177494 86.4428353,7.77595819 C86.4286942,7.73711692 86.4114028,7.69953174 86.3911389,7.66358885 C86.3671502,7.60956659 86.3400235,7.55703531 86.3099017,7.50627178 L86.2212794,7.37891986 C86.2212794,7.33397213 86.1474274,7.2815331 86.1031162,7.23658537 L86.0366495,7.16916376 C86.0139669,7.14460065 85.98926,7.12204501 85.9627975,7.10174216 L85.8150936,6.99686411 C85.7645131,6.95459157 85.7070248,6.92163141 85.6452341,6.89947735 L85.5049154,6.83954704 L85.3941374,6.74216028 C85.2946798,6.71683806 85.1934507,6.69930677 85.0913444,6.68972125 L85.0913444,6.53989547 L85.0913444,6.12038328 C85.0913444,6.12038328 85.0913444,6.12038328 85.1356556,6.12038328 C85.1651011,6.1237865 85.1948324,6.1237865 85.2242779,6.12038328 C85.2806266,6.11086243 85.3353403,6.09320343 85.3867522,6.06794425 C85.4419895,6.04795958 85.4941935,6.02022181 85.5418413,5.98554007 L85.6600045,5.8956446 C85.70202,5.86666201 85.739384,5.83128795 85.7707824,5.79076655 C85.8168511,5.74385517 85.856585,5.69095525 85.8889456,5.63344948 C85.9230542,5.58506593 85.9503929,5.53212403 85.9701827,5.4761324 C85.9950842,5.42398191 86.0124931,5.36848219 86.0218791,5.31132404 C86.025414,5.2864818 86.025414,5.26125339 86.0218791,5.23641115 C86.0295401,5.17171918 86.0295401,5.1063296 86.0218791,5.04163763 C86.0234208,4.76241857 85.9174254,4.49362331 85.7264712,4.29250871 C85.6828093,4.24165173 85.6332104,4.19637139 85.5787673,4.15766551 L85.4458338,4.07526132 C85.3740837,4.02745628 85.2937966,3.99437109 85.2095075,3.97787456 L85.0691888,3.97787456 L85.0101072,3.97787456 L84.9140997,0 L84.8254773,3.91794425 C84.7913863,3.91066881 84.7561757,3.91066881 84.7220846,3.91794425 L84.6556178,3.91794425 C84.5368352,3.93908232 84.4236706,3.98499843 84.323284,4.05278746 L84.2346617,4.11271777 C84.1802186,4.15142366 84.1306197,4.19670399 84.0869577,4.24756098 C83.8960036,4.44867557 83.7900082,4.71747084 83.7915499,4.9966899 C83.7838889,5.06138187 83.7838889,5.12677144 83.7915499,5.19146341 C83.7881142,5.21631278 83.7881142,5.24152694 83.7915499,5.26637631 C83.801129,5.32348707 83.8185294,5.37895969 83.8432463,5.43118467 C83.8629479,5.48721548 83.8902929,5.5401694 83.9244834,5.58850174 C83.9568439,5.64600751 83.9965778,5.69890744 84.0426466,5.74581882 C84.074045,5.78634022 84.111409,5.82171427 84.1534245,5.85069686 L84.2715876,5.94059233 C84.3192355,5.97527408 84.3714395,6.00301184 84.4266768,6.02299652 C84.4781259,6.04816095 84.532826,6.06581556 84.5891511,6.07543554 C84.6185966,6.07883876 84.6483279,6.07883876 84.6777734,6.07543554 C84.6777734,6.07543554 84.6777734,6.07543554 84.7220846,6.07543554 L84.7220846,6.49494774 L84.7220846,6.74216028 C84.6199706,6.75168673 84.5187371,6.7692188 84.4192916,6.7945993 L84.2789728,6.84703833 L84.1386541,6.90696864 C84.0767993,6.92897967 84.0192873,6.96195341 83.9687946,7.0043554 L83.8210907,7.10923345 L83.6881572,7.23658537 C83.643846,7.2815331 83.60692,7.33397213 83.569994,7.37891986 L83.4813717,7.50627178 C83.451474,7.55716278 83.4243541,7.60968088 83.4001345,7.66358885 C83.3798706,7.69953174 83.3625792,7.73711692 83.3484381,7.77595819 C83.3242626,7.8317079 83.3045062,7.88932356 83.2893566,7.94825784 C83.2669699,8.02652127 83.2521298,8.10680526 83.2450454,8.18797909 C83.2414679,8.25535187 83.2414679,8.32287113 83.2450454,8.3902439 C83.2373885,8.46996225 83.2373885,8.5502468 83.2450454,8.62996516 C83.2375282,8.68714528 83.2375282,8.74508468 83.2450454,8.80226481 C83.256512,8.85070356 83.2713189,8.89826544 83.2893566,8.9445993 L83.3336678,9.06445993 C83.3489275,9.10888518 83.3687292,9.15156834 83.3927493,9.19181185 C83.445009,9.28375922 83.5042709,9.37142435 83.569994,9.45400697 C83.6362518,9.53624621 83.7104753,9.61153603 83.7915499,9.67874564 C83.9647509,9.81213059 84.1597389,9.91356092 84.3675952,9.97839721 L81.1107238,21.7247387 L79.4121287,21.7247387 L79.4121287,27.71777 L76.6648358,37.3815331 L69.213173,41.1271777 L65.668279,42.9250871 L69.5159661,42.9250871 L69.5159661,76.6958188 L65.0848485,81.4228223 L65.0848485,157.317073 L69.7596775,157.317073 L69.7596775,121.059233 C69.966463,118.222532 71.0053139,114.78403 72.8762302,110.743728 C74.8420857,106.612645 77.5898424,102.914156 80.9630198,99.858885 C81.4135168,100.278397 81.8566286,100.705401 82.2775847,101.139895 C85.0384071,103.928128 87.3066302,107.176625 88.9833427,110.743728 C90.8591825,114.78403 91.8980334,118.222532 92.0998954,121.059233 L92.0998954,157.317073 L113,157.317073 L113,117.710627 L109.115387,117.710627 Z M82.7133113,25.6651568 L84.9288701,21.7547038 L87.1444289,25.6651568 L87.1444289,32.354878 L82.7133113,32.354878 L82.7133113,25.6651568 Z M88.7617868,68.0583624 L80.5125229,68.0583624 L80.5125229,57.5031359 C80.6826451,56.4314968 81.0780855,55.4095318 81.6719987,54.5066202 C81.983541,53.9697099 82.3498927,53.4675279 82.7650077,53.0083624 C83.3342519,52.3798383 83.9680502,51.8147867 84.6556178,51.3228223 C85.8427984,52.1670443 86.8479387,53.2477989 87.6096962,54.4991289 C88.2049808,55.4005685 88.598239,56.4234088 88.7617868,57.4956446 L88.7617868,68.0583624 Z" id="Shape" fill-rule="nonzero"></path>
                <path d="M128.775758,113.726134 L128.520242,113.337574 L128.287273,113.726134 L128.520242,114.008724 L128.520242,114.105864 L128.775758,113.726134 Z M157.152274,144.078019 L150.242438,136.774845 L138.505936,136.774845 L138.505936,129.807246 L137.782722,125.665543 L137.460421,126.698761 L135.723135,117.867838 L135.503027,116.658001 L135.723135,116.048667 L135.534471,115.677769 L135.267196,116.110484 L135.534471,116.613846 L135.267196,117.929654 L133.388413,126.760578 L133.160443,125.72736 L132.130649,129.807246 L131.98129,136.739521 L130.330476,136.739521 L130.613473,128.085216 L130.527002,127.758472 L129.426459,123.590276 L129.167045,124.9679 L126.808739,114.935971 L126.808739,114.052879 L126.808739,114.697536 L126.808739,114.918309 L123.900162,125.418277 L123.742942,123.6256 L122.422291,127.723148 L122.422291,136.774845 L113.78303,136.774845 L113.78303,157.18311 L157.702545,157.18311 L157.702545,144.66086 L157.152274,144.078019 Z M89.2911515,135.86526 C88.2533182,133.898014 86.882196,132.202666 85.2630303,130.884619 C84.2637585,131.716288 83.3507235,132.682483 82.5425455,133.7635 C82.051004,134.413841 81.6131578,135.11759 81.2349091,135.86526 C80.4285917,137.289227 79.8928768,138.900651 79.6642424,140.589804 L79.6642424,157.18311 L90.8618182,157.18311 L90.8618182,140.589804 C90.6331838,138.900651 90.0974689,137.289227 89.2911515,135.86526 Z M99.8574545,135.86526 L99.8574545,133.37494 L98.5272727,130.345933 L97.7757576,124.791282 L97.4751515,122.742507 L96.2727273,129.807246 L95.0627879,126.054104 L94.0181818,130.063343 L93.3944242,130.063343 L92.5151515,122.874971 L92.5151515,157.18311 L113.78303,157.18311 L113.78303,135.891753 L99.8574545,135.86526 Z M65.4364407,143.645304 L65.4364407,117.876669 L61.4213895,118.062118 L61.4213895,116.119315 L60.9987526,112.82538 L60.9987526,108.80731 L60.5526358,108.80731 L59.6604022,92.7880144 L59.3864708,91.9049221 L59.120366,92.7880144 L58.1811728,108.80731 L57.5393907,108.80731 L57.5393907,112.82538 L57.273286,116.119315 L57.273286,118.062118 L49.196224,116.295933 L49.196224,114.176512 L48.7344539,113.726134 L48.7344539,110.732451 L49.196224,110.290905 L49.196224,109.496122 L48.7344539,109.116392 L48.7344539,107.924218 L49.196224,107.323715 L49.196224,106.352313 L48.2022444,105.239617 L48.2022444,101.6366 L47.8343937,101.044928 L47.466543,101.6366 L47.466543,105.239617 L46.4256039,106.352313 L46.4256039,107.323715 L46.9186803,107.924218 L46.9186803,109.116392 L46.4256039,109.116392 L44.8602818,106.352313 L44.8602818,105.795965 L45.5725033,105.239617 L45.5725033,104.020949 L44.8602818,102.4932 L43.6001975,101.610107 L43.6001975,100.329623 L43.0914678,99.7379513 L43.0914678,98.625255 L43.6001975,97.4948967 L43.6001975,96.3822004 L43.0914678,94.4305662 L42.4731656,93.5474739 L42.6688308,92.8233381 L42.2618471,91.7812891 L42.2618471,90.288863 L42.4731656,89.6883602 L42.4731656,88.1871032 L41.620065,85.1934201 L41.620065,82.8267326 L42.2618471,82.1379205 L41.620065,81.3078137 L41.4322264,78.6585366 L39.6477592,80.928084 L40.5712992,80.928084 L40.5712992,81.2371663 L40.0625695,82.0672731 L40.5712992,82.7560852 L40.5712992,85.1227727 L39.6477592,88.1164558 L39.6477592,89.7590076 L40.0625695,90.2182156 L40.0625695,91.7106417 L39.6477592,92.7526907 L39.8982107,93.4768265 L39.2172956,94.3599188 L38.7790054,96.311553 L38.7790054,97.4242494 L39.3738278,98.5546076 L39.3738278,99.667304 L38.5911668,100.258976 L38.5911668,101.839711 L37.299776,102.722804 L36.7049536,103.914978 L36.7049536,105.124815 L37.299776,105.681163 L37.299776,106.237511 L35.8753329,109.00159 L35.2022444,109.00159 L34.9126598,108.401087 L34.9126598,107.729937 L35.5544419,107.014632 L35.5544419,105.963753 L34.6543817,104.98352 L34.6543817,104.02978 L35.2022444,103.614727 L34.6543817,103.137857 L34.6543817,101.371672 L34.4039302,100.78 L34.1534786,101.371672 L34.1534786,103.137857 L33.7778013,103.614727 L34.1534786,104.02978 L34.1534786,104.98352 L33.3473377,105.963753 L33.3473377,96.073118 L32.8073016,94.4217353 L32.2750921,96.073118 L32.2750921,96.8149156 L31.030661,111.059195 L30.0132017,111.059195 L30.0132017,114.706367 L30.4514919,115.094928 L30.0132017,115.545305 L29.4731656,115.545305 L29.0113955,120.437636 L28.8861698,120.199201 L28.7374642,118.512495 L28.5104925,117.629403 L28.2835208,118.512495 L28.2443877,119.015858 L28.0565491,121.506178 L26.4520939,121.506178 L26.1546827,115.103759 L26.0998964,113.911584 L25.3720217,111.447756 L24.4797881,111.447756 L24.4797881,109.496122 L23.5327682,108.33044 L22.8283733,97.7333317 L22.6092282,94.4305662 L22.8831595,93.5474739 L22.1004985,91.454545 L21.3178374,93.5474739 L21.5995954,94.4305662 L20.8873739,100.771169 L20.4647369,104.577298 L20.2377652,104.171075 L20.2377652,106.581917 L20.0420999,108.348102 L19.196826,109.496122 L19.196826,113.505361 L18.6880963,114.203004 L18.5550439,122.57472 L18.2184997,122.57472 L17.9758748,116.896436 L17.7489031,116.013344 L17.5141048,116.896436 L16.4888188,134.602438 L14.3991138,136.774845 L8.92048645,136.774845 L2.03306924,144.078019 L1.4852065,144.66086 L1.4852065,154.533833 L0.702545455,154.613311 L0.702545455,158.066202 L42.8331896,158.066202 C50.6598001,157.75712 58.2124792,157.47453 65.4599205,157.18311 L65.4599205,144.078019 L65.7025455,144.078019 L65.4364407,143.645304 Z M69.624,116.64917 L65.1149091,116.861112 L65.1149091,157.18311 L69.872,157.18311 L69.872,116.666832 L69.624,116.64917 Z" id="Shape" fill-rule="nonzero"></path>
            </g>
        </g>
    </g>
</svg>